<?xml version="1.0" standalone="no"?>
<!DOCTYPE svg PUBLIC "-//W3C//DTD SVG 20010904//EN"
 "http://www.w3.org/TR/2001/REC-SVG-20010904/DTD/svg10.dtd">
<svg version="1.0" xmlns="http://www.w3.org/2000/svg"
 width="900.000000pt" height="273.000000pt" viewBox="0 0 900.000000 273.000000"
 preserveAspectRatio="xMidYMid meet">
<metadata>
Created by potrace 1.10, written by Peter Selinger 2001-2011
</metadata>
<g transform="translate(0.000000,273.000000) scale(0.100000,-0.100000)"
fill="#ffffff" stroke="none">
<path d="M5080 2603 c-107 -11 -413 -93 -426 -114 -3 -5 -12 -9 -20 -9 -29 0
-159 -85 -215 -140 -86 -85 -115 -157 -126 -309 -6 -88 15 -251 34 -258 7 -3
19 0 27 6 7 6 78 14 162 17 216 9 272 27 368 115 64 59 106 138 129 249 9 41
24 111 33 155 21 98 39 155 70 218 27 54 30 78 12 75 -7 0 -29 -3 -48 -5z"/>
<path d="M7380 2015 c-37 -13 -122 -38 -180 -52 l-35 -9 -5 -111 c-3 -61 -9
-115 -13 -120 -5 -4 -40 -9 -79 -10 -39 -1 -75 -6 -80 -11 -5 -5 -8 -49 -6
-98 l3 -89 78 -5 c54 -3 81 -10 87 -20 6 -9 10 -150 10 -332 0 -306 1 -319 22
-359 47 -90 115 -134 245 -159 70 -13 127 -11 283 8 l55 7 -4 95 c-2 52 -5 98
-8 103 -2 4 -42 7 -88 7 -91 0 -125 12 -160 59 -18 24 -20 45 -24 287 -2 181
0 268 8 282 11 20 21 22 144 24 l132 3 3 89 c2 49 -1 93 -7 99 -5 5 -66 8
-134 8 -118 -2 -127 -1 -137 19 -7 12 -11 72 -10 148 1 70 1 133 1 140 -1 15
-54 14 -101 -3z"/>
<path d="M550 1748 c-19 -5 -46 -11 -60 -14 -39 -9 -91 -36 -140 -74 -56 -43
-64 -53 -97 -115 -23 -44 -26 -61 -26 -146 1 -103 14 -143 68 -207 28 -33 118
-81 175 -92 19 -4 58 -13 85 -20 194 -47 215 -59 215 -122 0 -33 -5 -42 -42
-68 -38 -28 -47 -30 -131 -30 -83 0 -146 12 -232 42 -16 6 -43 11 -59 12 -26
1 -31 -5 -53 -59 -14 -33 -31 -72 -39 -87 -20 -38 -18 -45 19 -62 58 -28 140
-46 272 -61 113 -13 142 -13 226 -1 171 26 282 95 339 211 30 61 31 70 27 152
-2 49 -10 106 -18 127 -26 72 -150 176 -210 176 -11 0 -29 5 -41 11 -11 6 -45
15 -77 20 -146 23 -191 49 -191 109 0 45 17 62 87 86 50 18 55 18 150 0 54
-10 108 -22 120 -27 18 -6 26 -3 43 18 11 14 20 33 20 42 0 10 4 21 9 26 5 6
17 30 25 55 19 57 9 70 -66 81 -29 4 -80 13 -113 18 -73 13 -237 13 -285 -1z"/>
<path d="M2945 1729 c-77 -6 -107 -16 -207 -65 -36 -18 -69 -30 -72 -26 -3 3
-6 18 -6 33 0 15 -5 31 -11 34 -19 13 -303 5 -311 -8 -4 -7 -7 -244 -5 -527
l2 -515 160 0 160 0 5 373 5 374 30 24 c58 47 107 64 181 64 57 -1 74 -5 94
-23 57 -49 55 -32 60 -436 l5 -376 149 -3 c90 -1 153 1 160 8 10 7 12 110 12
427 -1 376 -3 421 -19 452 -9 19 -17 39 -17 45 0 20 -93 103 -140 124 -51 23
-131 31 -235 21z"/>
<path d="M3920 1731 c-67 -8 -88 -15 -180 -60 -195 -93 -243 -358 -91 -493
l46 -40 -40 -32 c-146 -115 -186 -219 -130 -341 16 -37 38 -64 69 -87 44 -32
59 -58 34 -58 -31 -1 -114 -99 -135 -159 -30 -85 -3 -192 66 -261 47 -47 94
-73 191 -106 46 -16 86 -19 245 -19 195 0 240 7 328 51 16 8 33 14 39 14 13 0
107 63 143 97 30 27 54 60 84 113 27 48 41 159 29 235 -20 125 -70 196 -177
246 l-66 32 -210 4 c-246 4 -306 14 -341 56 -29 35 -30 47 -3 81 34 43 73 59
117 46 55 -15 136 -12 237 10 99 21 159 40 177 58 7 7 17 12 23 12 16 0 115
103 115 120 0 8 7 24 15 34 11 15 15 48 15 123 0 92 -3 110 -26 155 -25 50
-78 108 -99 108 -6 0 -16 5 -22 11 -7 7 -36 20 -64 30 -61 22 -282 33 -389 20z
m231 -211 c48 -39 67 -104 51 -167 -19 -68 -46 -97 -108 -117 -53 -17 -58 -17
-105 0 -72 26 -101 68 -102 147 -1 111 52 165 163 166 58 1 69 -2 101 -29z
m100 -953 c57 -48 55 -146 -3 -206 -53 -55 -106 -71 -229 -71 -97 0 -115 3
-165 27 -56 26 -114 88 -114 120 0 28 35 88 70 120 l35 33 190 0 c181 -1 191
-2 216 -23z"/>
<path d="M5120 1729 c-74 -7 -139 -27 -190 -58 -19 -11 -44 -25 -55 -30 -39
-19 -175 -174 -175 -200 0 -5 -6 -22 -14 -38 -46 -90 -62 -282 -31 -368 8 -22
15 -48 15 -57 0 -58 138 -241 201 -268 13 -5 31 -14 39 -19 54 -32 182 -61
273 -61 104 0 248 28 352 68 119 45 126 52 106 90 -5 9 -20 40 -32 67 -36 82
-43 86 -91 63 -59 -29 -176 -57 -234 -58 -55 0 -143 22 -188 47 -57 31 -90 78
-100 142 -11 74 -25 72 352 71 264 -1 337 2 344 12 5 7 7 67 3 135 -6 120 -20
180 -61 263 -20 41 -119 140 -138 140 -8 0 -19 7 -26 15 -7 8 -21 15 -32 15
-10 0 -31 6 -46 14 -32 16 -179 24 -272 15z m166 -238 c56 -40 76 -74 72 -124
l-3 -42 -175 0 -175 0 -3 27 c-3 28 30 90 64 119 37 32 80 48 130 49 41 0 59
-6 90 -29z"/>
<path d="M6460 1730 c-72 -8 -103 -18 -204 -66 -39 -18 -73 -31 -78 -28 -4 3
-8 21 -8 40 0 20 -5 34 -12 35 -107 4 -283 -2 -294 -12 -19 -16 -21 -1018 -2
-1037 15 -15 304 -17 313 -2 3 5 6 171 5 369 l0 359 30 30 c49 49 107 72 184
72 74 0 118 -22 140 -70 7 -17 13 -149 16 -395 l5 -370 160 0 160 0 3 385 c4
472 -4 525 -90 607 -79 75 -171 98 -328 83z"/>
<path d="M8270 1730 c-125 -11 -307 -70 -362 -118 -11 -9 -14 -20 -9 -31 4 -9
16 -34 25 -56 34 -78 42 -90 59 -93 10 -2 25 2 34 9 31 27 166 68 245 76 41 4
71 0 108 -13 62 -22 75 -36 91 -97 16 -57 9 -67 -52 -73 -281 -29 -375 -59
-463 -147 -85 -85 -99 -122 -100 -252 0 -95 3 -116 22 -151 23 -42 70 -89 111
-113 31 -17 144 -41 196 -41 88 0 198 34 268 82 29 21 33 18 39 -32 l3 -25
139 -3 c77 -1 143 1 148 6 5 5 9 197 8 426 l0 417 -24 48 c-24 46 -91 121
-110 121 -5 0 -17 6 -25 13 -48 39 -203 60 -351 47z m198 -699 c3 -103 0 -109
-60 -147 -55 -35 -160 -34 -203 1 -28 23 -30 29 -30 94 0 61 3 73 24 93 44 41
99 57 186 55 l80 -2 3 -94z"/>
<path d="M1140 1712 c-22 -8 -9 -65 36 -155 8 -16 14 -35 14 -44 0 -8 6 -27
14 -41 8 -15 21 -47 31 -72 9 -25 23 -58 31 -73 8 -16 14 -35 14 -44 0 -8 6
-27 14 -41 13 -26 31 -70 63 -157 8 -22 21 -53 29 -68 8 -16 14 -35 14 -44 0
-8 6 -27 14 -41 8 -15 21 -47 31 -72 9 -25 23 -58 31 -73 8 -16 14 -36 14 -46
0 -9 7 -26 15 -37 8 -10 15 -31 15 -46 0 -25 -44 -136 -71 -178 -5 -8 -14 -25
-19 -38 -6 -13 -33 -45 -60 -72 -57 -56 -88 -64 -216 -58 l-78 3 -7 -45 c-4
-25 -12 -58 -18 -73 -6 -16 -11 -41 -11 -57 0 -24 5 -29 33 -33 17 -2 59 -10
92 -17 66 -13 179 -8 235 11 180 60 287 175 375 399 10 25 24 60 32 77 7 18
20 47 27 65 7 18 20 49 28 68 9 19 23 55 33 80 17 43 23 57 59 143 34 80 44
104 61 147 17 43 23 57 59 143 34 80 44 104 61 147 10 25 24 61 33 80 8 19 21
49 28 65 6 17 19 47 28 68 9 21 16 43 16 49 0 6 8 20 17 30 12 14 14 24 7 35
-8 12 -33 15 -142 14 -72 0 -136 0 -140 -1 -5 0 -17 -19 -26 -42 -10 -24 -24
-56 -31 -73 -14 -34 -48 -121 -92 -240 -8 -22 -21 -52 -29 -67 -8 -14 -14 -34
-14 -45 0 -10 -7 -27 -15 -37 -8 -11 -15 -29 -15 -41 0 -12 -4 -25 -10 -31 -5
-5 -13 -27 -18 -49 -4 -22 -12 -39 -17 -38 -9 2 -29 49 -45 108 -9 30 -19 58
-60 165 -12 30 -25 70 -30 89 -5 18 -13 38 -19 44 -6 6 -11 20 -11 32 0 12 -7
30 -15 41 -8 10 -15 28 -15 40 0 11 -7 29 -15 40 -8 10 -15 29 -15 40 0 12 -8
32 -18 44 -17 21 -26 22 -170 23 -83 1 -156 1 -162 -1z"/>
</g>
</svg>
