<?xml version="1.0" encoding="utf-8"?>
<!-- Generator: Adobe Illustrator 20.1.0, SVG Export Plug-In . SVG Version: 6.00 Build 0)  -->
<svg version="1.1" id="Layer_1" xmlns="http://www.w3.org/2000/svg" xmlns:xlink="http://www.w3.org/1999/xlink" x="0px" y="0px"
	 viewBox="0 0 146.4 146.4" style="enable-background:new 0 0 146.4 146.4;" xml:space="preserve">
<style type="text/css">
	.st0{fill-rule:evenodd;clip-rule:evenodd;fill:#FFFFFF;}
</style>
<g>
	<path class="st0" d="M73.2,146.1l-27.5-30.7H0V0.3h146.4v115.1h-45.7L73.2,146.1L73.2,146.1L73.2,146.1z M12.5,103.5h39.4L73.2,128
		l21.3-24.4h40V12.2h-122V103.5L12.5,103.5L12.5,103.5z M51.9,49.1H33.8v18.1h18.1V49.1L51.9,49.1L51.9,49.1z M82.6,49.1H63.8v18.1
		h18.8V49.1L82.6,49.1L82.6,49.1z M112.6,49.1H94.5v18.1h18.1V49.1L112.6,49.1L112.6,49.1z"/>
</g>
</svg>
