<?xml version="1.0" encoding="utf-8"?>
<!-- Generator: Adobe Illustrator 20.1.0, SVG Export Plug-In . SVG Version: 6.00 Build 0)  -->
<svg version="1.1" id="Layer_1" xmlns="http://www.w3.org/2000/svg" xmlns:xlink="http://www.w3.org/1999/xlink" x="0px" y="0px"
	 viewBox="0 0 146.4 146.4" style="enable-background:new 0 0 146.4 146.4;" xml:space="preserve">
<style type="text/css">
	.st0{fill-rule:evenodd;clip-rule:evenodd;fill:#FFFFFF;}
</style>
<g>
	<path class="st0" d="M108.3,19.8C100.7,7.6,88.5,0,73.2,0C54.9,0,39.7,12.2,33.5,29C0,15.3,0,15.3,0,15.3C0,125,0,125,0,125
		c48.8,21.4,48.8,21.4,48.8,21.4c48.8-18.3,48.8-18.3,48.8-18.3c48.8,18.3,48.8,18.3,48.8,18.3c0-109.8,0-109.8,0-109.8L108.3,19.8
		L108.3,19.8L108.3,19.8z M73.2,12.2c16.8,0,29,13.7,29,29c0,21.4-13.7,33.6-25.9,45.7c-1.5,0-3,1.5-3,3.1c-10.7-10.7-29-32-29-48.8
		C44.2,25.9,56.4,12.2,73.2,12.2L73.2,12.2z M12.2,117.4c0-83.9,0-83.9,0-83.9C32,41.2,32,41.2,32,41.2l0,0
		c0,10.7,4.6,21.4,10.7,30.5c0,57.9,0,57.9,0,57.9L12.2,117.4L12.2,117.4L12.2,117.4z M54.9,131.1c0-42.7,0-42.7,0-42.7
		c7.6,7.6,13.7,13.7,13.7,13.7c4.6,3.1,4.6,3.1,4.6,3.1c4.6-3.1,4.6-3.1,4.6-3.1c1.5-1.5,4.6-4.6,6.1-6.1c3.1-3.1,4.6-4.6,7.6-7.6
		c0,29,0,29,0,29L54.9,131.1L54.9,131.1L54.9,131.1z M134.2,128.1c-30.5-10.7-30.5-10.7-30.5-10.7c0-42.7,0-42.7,0-42.7
		c6.1-9.2,10.7-19.8,10.7-33.6c0-1.5,0-3.1,0-4.6c19.8,9.1,19.8,9.1,19.8,9.1V128.1L134.2,128.1L134.2,128.1z M85.4,42.7
		c0,6.1-6.1,12.2-12.2,12.2c-6.1,0-12.2-6.1-12.2-12.2c0-6.1,6.1-12.2,12.2-12.2C79.3,30.5,85.4,36.6,85.4,42.7L85.4,42.7z"/>
</g>
</svg>
