<?xml version="1.0" encoding="utf-8"?>
<!-- Generator: Adobe Illustrator 20.1.0, SVG Export Plug-In . SVG Version: 6.00 Build 0)  -->
<svg version="1.1" id="Layer_1" xmlns="http://www.w3.org/2000/svg" xmlns:xlink="http://www.w3.org/1999/xlink" x="0px" y="0px"
	 viewBox="0 0 366.1 458.5" style="enable-background:new 0 0 366.1 458.5;" xml:space="preserve">
<style type="text/css">
	.st0{fill-rule:evenodd;clip-rule:evenodd;fill:#2B3A45;stroke:#2B3A45;stroke-width:7;stroke-miterlimit:10;}
</style>
<g>
	<path class="st0" d="M129.6,314.1c-21.2-12.3-21.2-12.3-21.2-12.3c15.1-27.6,42.4-42.9,72.6-42.9s57.5,15.3,72.6,42.9
		c-21.2,12.3-21.2,12.3-21.2,12.3c-9.1-18.4-30.3-30.7-51.4-30.7S138.7,295.7,129.6,314.1L129.6,314.1z"/>
	<path class="st0" d="M193.8,105.1c0-18.1,0-18.1,0-18.1c15.2-3,24.4-18.1,24.4-33.2c0-21.1-15.2-36.2-36.6-36.2
		s-36.6,15.1-36.6,36.2c0,15.1,9.1,30.2,24.4,33.2c0,18.1,0,18.1,0,18.1c-82.2,6-146.2,75.4-146.2,156.9c0,120.7,0,120.7,0,120.7
		c9.1,3,9.1,3,9.1,3c24.4,6,48.7,12.1,73.1,18.1c12.2,27.1,42.6,48.3,76.2,48.3s64-21.1,76.2-48.3c24.4-6,48.7-12.1,73.1-18.1
		c9.1-3,9.1-3,9.1-3c0-120.7,0-120.7,0-120.7C340.1,180.6,276.1,111.2,193.8,105.1L193.8,105.1z M181.7,41.8c6.1,0,12.2,6,12.2,12.1
		s-6.1,12.1-12.2,12.1s-12.2-6-12.2-12.1S175.6,41.8,181.7,41.8L181.7,41.8z M181.7,129.3c73.1,0,134,60.3,134,132.7
		c0,54.3,0,54.3,0,54.3c-85.3,27.2-182.8,27.2-268.1,0c0-54.3,0-54.3,0-54.3C47.6,189.6,108.6,129.3,181.7,129.3L181.7,129.3z
		 M181.7,427.9c-18.3,0-33.5-9-45.7-21.1c15.2,3,30.5,3,45.7,3s30.5,0,45.7-3C215.2,418.9,199.9,427.9,181.7,427.9L181.7,427.9z
		 M47.6,364.6c0-21.1,0-21.1,0-21.1c42.6,12.1,88.3,18.1,134,18.1s91.4-6,134-18.1c0,21.1,0,21.1,0,21.1
		C227.4,391.7,136,391.7,47.6,364.6L47.6,364.6z M145.1,234.9c-24.4,0-24.4,0-24.4,0c0-48.3,0-48.3,0-48.3c24.4,0,24.4,0,24.4,0
		V234.9L145.1,234.9L145.1,234.9z M242.6,234.9c-24.4,0-24.4,0-24.4,0c0-48.3,0-48.3,0-48.3c24.4,0,24.4,0,24.4,0V234.9L242.6,234.9
		L242.6,234.9z"/>
</g>
</svg>
