<?xml version="1.0" encoding="utf-8"?>
<!-- Generator: Adobe Illustrator 20.1.0, SVG Export Plug-In . SVG Version: 6.00 Build 0)  -->
<svg version="1.1" id="Layer_1" xmlns="http://www.w3.org/2000/svg" xmlns:xlink="http://www.w3.org/1999/xlink" x="0px" y="0px"
	 viewBox="0 0 512 512" style="enable-background:new 0 0 512 512;" xml:space="preserve">
<style type="text/css">
	.st0{fill:#DBDBDB;}
	.st1{fill:#FFFFFF;}
</style>
<path class="st0" d="M132.4,495.1V356.4c0-15.2,12.3-27.6,27.6-27.6H352c15.2,0,27.6,12.3,27.6,27.6v138.7"/>
<g>
	<path class="st1" d="M379.6,509.7c-8.1,0-14.6-6.6-14.6-14.6V356.4c0-7.1-5.8-12.9-12.9-12.9H160c-7.1,0-12.9,5.8-12.9,12.9v138.7
		c0,8.1-6.5,14.6-14.6,14.6s-14.6-6.6-14.6-14.6V356.4c0-23.3,18.9-42.2,42.2-42.2H352c23.3,0,42.2,18.9,42.2,42.2v138.7
		C394.2,503.1,387.7,509.7,379.6,509.7z"/>
	<path class="st1" d="M352,174.9H160c-23.3,0-42.2-18.9-42.2-42.2V89.2c0-8.1,6.5-14.6,14.6-14.6S147,81.2,147,89.2v43.5
		c0,7.1,5.8,12.9,12.9,12.9H352c7.1,0,12.9-5.8,12.9-12.9V16.9c0-8.1,6.5-14.6,14.6-14.6s14.6,6.6,14.6,14.6v115.8
		C394.2,156,375.3,174.9,352,174.9z"/>
	<path class="st1" d="M207.7,118.5c-8.1,0-14.6-6.6-14.6-14.6V69.5c0-8.1,6.5-14.6,14.6-14.6c8.1,0,14.6,6.6,14.6,14.6v34.4
		C222.4,111.9,215.8,118.5,207.7,118.5z"/>
	<path class="st1" d="M440.4,512H71.6c-32.3,0-58.6-26.3-58.6-58.6V58.6C13.1,26.3,39.4,0,71.6,0h313c12.1,0,23.5,4.7,32.1,13.3
		l68.9,68.9c8.6,8.6,13.3,20,13.3,32.1v339.2C498.9,485.7,472.6,512,440.4,512z M71.6,29.3c-16.2,0-29.3,13.1-29.3,29.3v394.9
		c0,16.2,13.1,29.3,29.3,29.3h368.7c16.2,0,29.3-13.1,29.3-29.3V114.3c0-4.3-1.7-8.4-4.7-11.4L396.1,34c-3-3-7.1-4.7-11.4-4.7
		L71.6,29.3L71.6,29.3z"/>
</g>
</svg>
