<?xml version="1.0" encoding="utf-8"?>
<!-- Generator: Adobe Illustrator 20.1.0, SVG Export Plug-In . SVG Version: 6.00 Build 0)  -->
<svg version="1.1" id="Layer_1" xmlns="http://www.w3.org/2000/svg" xmlns:xlink="http://www.w3.org/1999/xlink" x="0px" y="0px"
	 viewBox="0 0 139.8 146.4" style="enable-background:new 0 0 139.8 146.4;" xml:space="preserve">
<style type="text/css">
	.st0{fill-rule:evenodd;clip-rule:evenodd;fill:#FFFFFF;}
</style>
<g>
	<path class="st0" d="M139.8,146.4H0V0h139.8V146.4L139.8,146.4L139.8,146.4z M97.4,134.5h30.6v-24.4H97.4V134.5L97.4,134.5
		L97.4,134.5z M54.9,134.5h30v-24.4h-30V134.5L54.9,134.5L54.9,134.5z M11.9,134.5h30.6v-24.4H11.9V134.5L11.9,134.5L11.9,134.5z
		 M97.4,97.6h30.6V73.2H97.4V97.6L97.4,97.6L97.4,97.6z M54.9,97.6h30V73.2h-30V97.6L54.9,97.6L54.9,97.6z M11.9,97.6h30.6V73.2
		H11.9V97.6L11.9,97.6L11.9,97.6z M97.4,61.3h30.6V36.9H97.4V61.3L97.4,61.3L97.4,61.3z M54.9,61.3h30V36.9h-30V61.3L54.9,61.3
		L54.9,61.3z M11.9,61.3h30.6V36.9H11.9V61.3L11.9,61.3L11.9,61.3z M11.9,24.4h116.1V12.5H11.9V24.4L11.9,24.4L11.9,24.4z"/>
</g>
</svg>
