<?xml version="1.0" encoding="utf-8"?>
<!-- Generator: Adobe Illustrator 20.1.0, SVG Export Plug-In . SVG Version: 6.00 Build 0)  -->
<svg version="1.1" id="Layer_1" xmlns="http://www.w3.org/2000/svg" xmlns:xlink="http://www.w3.org/1999/xlink" x="0px" y="0px"
	 viewBox="0 0 146.4 145.8" style="enable-background:new 0 0 146.4 145.8;" xml:space="preserve">
<style type="text/css">
	.st0{fill-rule:evenodd;clip-rule:evenodd;fill:#FFFFFF;}
</style>
<g>
	<g>
		<g>
			<path class="st0" d="M112.6,0H24.4v54.8h12.5V12.5h60.7v36.1h36.9V134H24.4v11.8h122V33.6L112.6,0L112.6,0L112.6,0z M110.1,15
				l21.3,21.8h-21.3V15L110.1,15L110.1,15z M12.5,121.5V85.4H0V72.9h12.5h11.9h12.5v12.5H24.4v36.1H12.5L12.5,121.5L12.5,121.5z
				 M97.6,121.5V85.4H85.7V72.9h11.9h12.5H122v12.5h-11.9v36.1H97.6L97.6,121.5L97.6,121.5z M38.2,121.5l15-25.5L39.4,72.9h12.5
				l9.4,12.5l7.5-12.5h13.8L66.9,96l15.6,25.5H70.1l-8.8-15l-9.4,15H38.2L38.2,121.5L38.2,121.5z"/>
		</g>
	</g>
</g>
</svg>
